<svg xmlns="http://www.w3.org/2000/svg" viewBox="0 0 320 220">
  <rect width="320" height="220" rx="22" fill="#111827"/>
  <rect x="54" y="42" width="212" height="136" rx="14" fill="#0f172a" stroke="#7c3aed" stroke-width="5"/>
  <g>
    <rect x="74" y="62" width="34" height="28" rx="5" fill="#22d3ee"/>
    <rect x="116" y="62" width="34" height="28" rx="5" fill="#7c3aed"/>
    <rect x="158" y="62" width="34" height="28" rx="5" fill="#f59e0b"/>
    <rect x="200" y="62" width="34" height="28" rx="5" fill="#22c55e"/>
    <rect x="74" y="99" width="34" height="28" rx="5" fill="#7c3aed"/>
    <rect x="116" y="99" width="34" height="28" rx="5" fill="#22c55e"/>
    <rect x="158" y="99" width="34" height="28" rx="5" fill="#22d3ee"/>
    <rect x="200" y="99" width="34" height="28" rx="5" fill="#7c3aed"/>
    <rect x="74" y="136" width="34" height="22" rx="5" fill="#f59e0b"/>
    <rect x="116" y="136" width="34" height="22" rx="5" fill="#22d3ee"/>
    <rect x="158" y="136" width="34" height="22" rx="5" fill="#7c3aed"/>
    <rect x="200" y="136" width="34" height="22" rx="5" fill="#22c55e"/>
  </g>
</svg>
